HIERARCHY
ROOT Hips
{
  OFFSET -35.4901 99.2528 17.4586
  CHANNELS 6 Xposition Yposition Zposition Zrotation Xrotation Yrotation
  JOINT LeftUpLeg
  {
    OFFSET 8.64259 1.95398 -2.38835
    CHANNELS 3 Zrotation Xrotation Yrotation
    JOINT LeftLeg
    {
      OFFSET 43.7702 0 0
      CHANNELS 3 Zrotation Xrotation Yrotation
      JOINT LeftFoot
      {
        OFFSET 40.6238 0 0
        CHANNELS 3 Zrotation Xrotation Yrotation
        JOINT LeftToeBase
        {
          OFFSET 12.7242 0 0
          CHANNELS 3 Zrotation Xrotation Yrotation
          End Site
          {
            OFFSET 0 0 0
          }
        }
      }
    }
  }
  JOINT RightUpLeg
  {
    OFFSET -8.2249 1.95398 -2.59336
    CHANNELS 3 Zrotation Xrotation Yrotation
    JOINT RightLeg
    {
      OFFSET 43.5653 0 0
      CHANNELS 3 Zrotation Xrotation Yrotation
      JOINT RightFoot
      {
        OFFSET 40.6238 0 0
        CHANNELS 3 Zrotation Xrotation Yrotation
        JOINT RightToeBase
        {
          OFFSET 12.7242 0 0
          CHANNELS 3 Zrotation Xrotation Yrotation
          End Site
          {
            OFFSET 0 0 0
          }
        }
      }
    }
  }
  JOINT Spine
  {
    OFFSET 0.165834 0.87714 6.61349
    CHANNELS 3 Zrotation Xrotation Yrotation
    JOINT Spine1
    {
      OFFSET 7.38963 1.71661e-005 0
      CHANNELS 3 Zrotation Xrotation Yrotation
      JOINT Spine2
      {
        OFFSET 11.9445 1.14441e-005 0
        CHANNELS 3 Zrotation Xrotation Yrotation
        JOINT Spine3
        {
          OFFSET 14.7254 4.19617e-005 0
          CHANNELS 3 Zrotation Xrotation Yrotation
          JOINT Spine4
          {
            OFFSET 10.9679 0 0
            CHANNELS 3 Zrotation Xrotation Yrotation
            JOINT RightShoulder
            {
              OFFSET 2.46616 -1.6653 3.69651
              CHANNELS 3 Zrotation Xrotation Yrotation
              JOINT RightArm
              {
                OFFSET 13.0012 0 0
                CHANNELS 3 Zrotation Xrotation Yrotation
                JOINT RightForeArm
                {
                  OFFSET 28.7848 1.52588e-005 0
                  CHANNELS 3 Zrotation Xrotation Yrotation
                  JOINT RightHand
                  {
                    OFFSET 26.5688 1.52588e-005 0
                    CHANNELS 3 Zrotation Xrotation Yrotation
                    End Site
                    {
                      OFFSET 0 0 0
                    }
                  }
                }
              }
            }
            JOINT LeftShoulder
            {
              OFFSET 2.38034 -1.29275 -3.7523
              CHANNELS 3 Zrotation Xrotation Yrotation
              JOINT LeftArm
              {
                OFFSET 16.3182 6.10351e-005 0
                CHANNELS 3 Zrotation Xrotation Yrotation
                JOINT LeftForeArm
                {
                  OFFSET 27.0901 0 0
                  CHANNELS 3 Zrotation Xrotation Yrotation
                  JOINT LeftHand
                  {
                    OFFSET 24.5451 1.52588e-005 0
                    CHANNELS 3 Zrotation Xrotation Yrotation
                    End Site
                    {
                      OFFSET 0 0 0
                    }
                  }
                }
              }
            }
            JOINT Neck
            {
              OFFSET 5.0226 -0.0266342 0
              CHANNELS 3 Zrotation Xrotation Yrotation
              JOINT Head
              {
                OFFSET 6.69364 2.86102e-005 0
                CHANNELS 3 Zrotation Xrotation Yrotation
                End Site
                {
                  OFFSET 0 0 0
                }
              }
            }
          }
        }
      }
    }
  }
}
MOTION
Frames:	12
Frame Time:	0.0416667
42.677 81.0294 11.0416 88.836 -27.0276 99.4399 -157.807 30.3204 77.3605 -63.881 5.62148 -16.3824 85.873 11.8873 2.87379 7.613 14.908 -15.4161 -175.284 17.9227 75.3482 -80.0861 -26.0425 -6.9981 77.1612 -7.9036 0.0444861 22.5115 -1.4688 4.24676 0.287638 8.5463 -92.5206 9.74321 -0.566953 -4.95433 -1.93692 -0.784197 -4.9247 -24.3979 0.946362 -4.89618 -4.38529 0.946372 -4.89618 91.898 -28.4051 -103.51 21.2567 -19.8433 -24.7311 -35.1757 -15.235 -71.9875 -28.5395 2.02505 -18.4472 -83.6844 -47.1627 87.9157 -28.2918 27.1637 19.4834 27.2858 3.68771 -61.1703 14.1444 -0.636454 -8.13957 18.146 25.6689 -4.18815 -19.1904 22.3674 27.3163 
45.7255 81.2354 11.7188 88.0695 -21.1207 96.8852 -160.184 25.018 75.5344 -59.3494 10.996 -16.3199 87.2169 13.932 7.81495 8.70273 19.249 -20.688 -167.254 19.7375 74.0009 -89.2166 -11.3111 -6.61783 79.8755 -10.0776 -4.07001 12.1985 -2.5494 6.3901 -0.0511013 8.61721 -92.1437 9.60107 -1.06915 -4.16844 -2.07594 -1.25143 -4.11747 -24.5575 0.231822 -4.29689 -4.54486 0.231789 -4.29689 91.0561 -30.5741 -104.46 24.8175 -11.9108 -15.6545 -30.9161 -17.3856 -67.3163 -28.1549 2.01012 -18.2103 -84.1334 -49.0485 87.4377 -20.8584 24.2992 6.26641 25.9826 5.70122 -58.5896 18.6524 -0.76085 -7.98143 20.1399 26.2397 -3.44663 -17.9559 23.2663 25.2044 
48.5566 81.4082 12.0937 87.015 -14.5388 95.6021 -162.704 21.5563 75.2888 -58.8183 11.8318 -15.3369 89.274 13.6159 2.55968 2.69966 21.0487 -20.1086 -159.698 22.9809 72.8835 -97.4006 -2.73953 -5.10466 84.106 -12.9246 -6.03829 5.84834 -3.19827 7.38519 -0.461198 8.63092 -91.9746 9.56657 -1.80993 -3.77655 -2.10836 -1.97427 -3.69339 -24.6013 -0.592362 -4.14526 -4.58865 -0.592352 -4.14526 90.9707 -31.6367 -104.263 27.3084 -4.39619 -6.47068 -31.8705 -22.2966 -65.5016 -27.458 1.57317 -17.1724 -84.2685 -50.5335 87.4065 -14.9474 19.8976 -3.50852 27.8895 5.08691 -61.6494 18.6325 -1.29501 -10.8606 21.1865 26.7711 -2.12537 -16.8311 23.8415 23.2462 
51.2883 81.3893 12.4809 85.4981 -7.60322 95.1128 -164.766 18.5477 75.5328 -56.7286 17.3763 -14.576 90.2076 14.8062 4.80609 1.3131 24.3921 -22.8934 -153.789 28.1564 70.3064 -103.353 -0.703848 -3.62192 87.5983 -14.9141 -6.09354 6.6828 -2.29511 5.93657 -0.829863 8.63142 -91.9366 9.55652 -2.52769 -3.64654 -2.11677 -2.68561 -3.53192 -24.6178 -1.31603 -4.23664 -4.60512 -1.31602 -4.23663 91.9886 -31.9303 -102.187 29.0686 1.17402 1.73926 -30.708 -24.888 -61.9769 -27.266 1.83074 -18.6711 -84.7819 -49.7968 86.5429 -11.9086 15.0176 -12.0219 28.9509 2.44172 -67.1714 17.9861 -1.40612 -11.6808 23.2965 26.9817 -2.17378 -16.134 24.2107 22.7736 
54.3878 81.0728 13.0971 84.6887 -0.466218 95.5152 -166.627 15.1142 76.6719 -56.7902 20.5086 -12.6424 92.562 15.597 3.22082 -0.811666 25.7611 -23.2551 -150.371 34.3933 67.5609 -106.259 -3.05436 -2.85926 88.6873 -15.8932 -7.39475 8.99229 -2.91663 7.01678 -1.25961 8.80261 -91.9479 9.202 -3.3844 -3.61646 -2.46917 -3.54018 -3.46412 -24.9807 -2.14227 -4.46516 -4.96807 -2.14228 -4.46517 92.3845 -31.8764 -101.431 30.432 6.41511 10.0976 -29.2112 -26.8371 -59.301 -28.5039 1.71817 -17.5015 -85.6438 -47.9306 84.9699 -9.00634 8.57946 -20.6065 28.7941 -0.445022 -73.0374 17.557 -1.4899 -12.3022 27.0358 26.5117 -3.8008 -16.2766 24.166 23.377 
57.9375 80.9513 13.5077 84.389 6.24663 95.955 -168.993 11.724 78.2961 -57.484 23.3628 -9.74232 93.3819 15.7927 2.23402 -1.39018 26.8146 -23.9922 -149.347 40.9532 65.4783 -104.945 -2.3224 -2.98322 92.7743 -16.5637 -3.53817 7.57715 -1.70976 4.985 -1.66627 8.89906 -91.9845 8.9958 -4.20881 -3.63849 -2.6729 -4.36479 -3.44975 -25.1973 -2.92205 -4.73391 -5.18469 -2.92206 -4.73391 92.4733 -31.4894 -101.373 31.7519 11.8515 20.3865 -27.7213 -27.21 -57.6207 -27.7507 1.69584 -17.5603 -86.4627 -45.2048 83.2503 -6.88207 1.01733 -26.9758 28.1036 -3.36944 -80.0583 14.8515 -1.56216 -14.0815 28.7681 25.4538 -5.77834 -15.9917 23.8305 23.9898 
61.9461 80.8127 13.5141 83.4329 11.3468 97.3539 -171.259 7.89597 80.1488 -56.0541 25.3058 -6.83014 94.4918 16.385 2.22757 3.93031 25.2067 -24.9774 -150.018 48.4612 64.2453 -99.2885 -2.78376 -3.80625 95.0713 -16.5823 -0.8806 12.2219 -1.47165 4.46965 -1.98225 8.92817 -92.117 8.92112 -4.8971 -3.85785 -2.74568 -5.06204 -3.6385 -25.278 -3.51289 -5.14989 -5.26534 -3.51286 -5.14989 92.8638 -31.1477 -100.703 32.3193 14.5822 29.2321 -27.0307 -26.2352 -57.7932 -27.4614 2.09985 -19.4037 -86.4867 -42.6391 82.7595 -5.57981 -6.87349 -33.0161 28.7857 -4.77192 -85.8813 16.0785 -1.85924 -15.2281 30.3331 24.6819 -7.97689 -16.9223 23.6794 24.7663 
66.7832 81.4555 12.7245 82.4717 14.2299 99.5465 -172.659 3.07644 82.4524 -50.9373 32.6949 -4.84612 89.0903 16.0191 9.55761 12.9643 21.6221 -25.5939 -153.981 54.5291 67.1026 -88.898 -3.42971 -4.87508 94.8717 -15.1734 2.56095 15.5073 0.201073 1.0984 -2.17444 8.99537 -92.3977 8.76047 -5.40247 -4.38855 -2.90585 -5.59019 -4.14646 -25.4331 -3.83616 -5.8072 -5.42046 -3.83612 -5.80719 93.4582 -30.5207 -99.6979 32.6401 14.5514 35.6705 -26.0733 -23.5636 -58.4695 -27.5057 2.3566 -20.1134 -85.9769 -40.1307 83.1467 -7.82389 -14.4031 -39.0157 26.9768 -5.0874 -89.801 17.9432 -1.74466 -13.5729 31.7885 24.8491 -7.63261 -17.3902 23.7793 23.8554 
72.2192 82.3802 10.9808 81.5485 14.7384 100.754 -175.427 -1.97362 82.1178 -44.433 31.4031 -2.65122 83.2064 13.5424 12.6889 21.3257 22.0519 -30.7807 -158.958 57.5578 71.5215 -76.012 -8.98835 -5.75097 91.993 -12.7185 6.32386 19.9263 0.782094 -0.577857 -2.21635 8.94855 -92.5926 8.83924 -5.57393 -4.75843 -2.82756 -5.77773 -4.50852 -25.3462 -3.88915 -6.21079 -5.33355 -3.88914 -6.21079 93.3853 -30.1526 -99.9454 31.4282 13.1522 40.6072 -29.4214 -23.734 -61.9031 -26.7111 2.44567 -21.612 -85.7852 -37.0536 82.9091 -14.077 -18.6846 -41.3083 26.0036 -5.29159 -94.2816 16.9414 -1.61758 -13.3354 32.1305 25.1141 -7.1089 -17.8072 23.7945 23.6068 
78.2609 83.3425 8.71165 80.9944 14.6226 102.122 -178.125 -6.00818 81.6956 -39.3033 25.1883 -0.00323177 73.9121 7.09069 6.56656 26.4688 19.1419 -29.9378 -165.687 56.4326 78.4036 -62.9713 -20.4691 -5.91564 90.4686 -12.9525 4.03075 21.5056 0.767621 -0.802923 -2.16901 8.84488 -92.8206 9.03065 -5.58494 -5.19774 -2.63771 -5.80801 -4.94707 -25.1402 -3.76844 -6.6321 -5.12755 -3.76844 -6.63211 93.1169 -29.7504 -100.606 30.5807 9.22347 42.5082 -30.4765 -22.1759 -63.2795 -25.7574 2.68557 -23.578 -85.4602 -37.1969 83.5065 -15.4274 -16.9614 -41.6445 25.0566 -6.45484 -97.1144 18.351 -1.66164 -12.9469 31.9769 25.2461 -6.43963 -18.3032 23.6303 23.1113 
84.2718 83.7286 6.45341 80.9968 14.0675 102.906 -178.489 -7.45458 81.9339 -39.0601 24.9577 0.912953 63.809 1.99341 4.97 28.4237 13.1076 -21.601 -170.876 52.706 84.5536 -52.4926 -26.1087 -5.51834 88.0134 -12.8558 0.834688 20.7535 1.19815 -1.6406 -2.02011 8.784 -92.8933 9.15246 -5.3232 -5.35323 -2.51762 -5.55335 -5.11406 -25.008 -3.47232 -6.70142 -4.9953 -3.47233 -6.70141 92.0725 -30.5719 -102.446 28.2212 4.23518 41.5046 -33.1466 -21.8067 -65.9753 -28.0122 2.8145 -22.8833 -85.249 -38.9269 84.1821 -14.6024 -10.2199 -39.6657 27.3272 -9.06945 -98.8871 20.1139 -1.80834 -12.9958 33.1327 25.0145 -6.78219 -19.3853 23.5534 21.8713 
89.3274 83.1927 4.60618 80.95 13.4678 102.707 -176.878 -3.77575 82.3663 -47.1171 26.9363 0.864036 56.2773 -1.42683 1.72634 27.897 3.06953 -5.16826 -167.815 52.2946 83.8098 -55.5879 -30.6958 -7.81244 75.318 -6.62312 3.33183 27.6494 -0.0797745 0.186822 -1.82492 8.72419 -92.718 9.29286 -4.85816 -5.0312 -2.37791 -5.07464 -4.81278 -24.8704 -3.12485 -6.25525 -4.8578 -3.12484 -6.25527 91.5262 -28.2168 -104.337 28.7911 3.25229 35.9737 -37.229 -21.6754 -68.241 -28.291 2.38212 -21.3539 -85.4501 -41.9859 84.3586 -13.018 0.32548 -34.4436 30.1681 -12.2519 -98.5993 17.6348 -1.71712 -13.5669 34.9945 24.4433 -7.86102 -19.6981 23.5176 21.3642 
